<svg xmlns="http://www.w3.org/2000/svg" xmlns:xlink="http://www.w3.org/1999/xlink" viewBox="0 0 500 500"><defs><clipPath id="freepik--clip-path--inject-5"><path d="M313.53,258.82s-6,29.41-3.79,40.79,4.74,20.56,1.89,31.62-12,25.3-13.91,28.46.32,4.11-2.84,4.43-6.64.32-7.28,1.27-3.48,4.74-1.89,5.37,11.38.32,12.33-.32,2.53-6.95,2.53-6.95,2.84-4.11,5.37-7.91,13.28-19,15.81-24.35-1.58-15.81,1.9-22.45,12.33-17.07,13.6-18.65,5.69-18.34,2.21-30S317.64,247.75,313.53,258.82Z" style="fill:#fff;stroke:#263238;strokeLinecap:round;strokeLinejoin:round"></path></clipPath><clipPath id="freepik--clip-path-2--inject-5"><path d="M218.67,274s15.49,48.38,18,57.23,5.38,9.81,6.64,14.23,1.27,16.45.64,19-7.28,3.47-8.54,4.74-2.85,2.85-1.58,4.11,9.8,0,11.7,0,2.53-3.79,2.53-6.32-.64-13.6-.64-19.61-1.26-10.12-2.21-19-6-34.47-6-44.27A73.25,73.25,0,0,0,237.64,268S228.79,261.67,218.67,274Z" style="fill:#fff;stroke:#263238;strokeLinecap:round;strokeLinejoin:round"></path></clipPath><clipPath id="freepik--clip-path-3--inject-5"><path d="M376,319.76c-1.1-1.65-7.7-5.77-14.29-13.47a48.32,48.32,0,0,1-10.18-20.07c-.82-3.85-1.37-18.15-1.37-26.4a86.3,86.3,0,0,0-1.65-15.95s5.77,19,9.07,26.95,1.93,17.87,1.93,17.87a9.75,9.75,0,0,0-1.1,4.4c0,2.47,2.47,5.5,2.47,5.5a10.71,10.71,0,0,0,1.74-5.51,8.44,8.44,0,0,0-1.19-4.67s.61-9.4-1.37-16.22c-1.55-5.31-7.15-21.17-9.35-26.4s-5.23-15.39-5.23-15.39-9.35-22.55-28.32-32.45S266,184.47,247.33,187.22s-29.43,15.4-36.85,20.08-13.2,7.7-20.9,7.7-15.4-8.53-19.25-20.35-9.07-33.27-9.07-33.27-1.93-8.8-5.5-10.73-16.77.83-21.45,3-14.3,6-14.3,6-14.57,5.5-14.85,11.82,3,5.22,3,5.22-.15,2.81,1.49,3.75,3.25-1.89,6.12-3.23c3.08-.79,7-1.72,9.44-1.34,1.81.28,4,2.05,6.74,3.69,2.83,2.15,9.27,7.61,11.87,14.38,2.58,12.24,7.58,31.08,15.21,39.95,11.82,13.75,23.1,21.17,28.6,26.12s12.09,13.48,12.09,16.5-6.87,34.1-11.54,45.1-22.32,45.39-24.52,48.69-8.8,4.68-10.17,6.6-1.38,3.3-.28,3.3h11.55a5.72,5.72,0,0,0,2.48-3c.82-2.2-1.1-6.6.82-8.53s22.32-38.79,26.72-42.37,6-13.47,10.17-19.8l16.5-25.29s8.25-6,14-9.35,45.92-5.5,57.75-6.6,22.54-1.65,22.54-1.65,4.68,17.87,10.18,24.47,21.89,24.38,28.32,31.35c7.59,8.23,8.25,15.12,9.35,17.05s1.1,23.64,1.65,28.59-.55,4.95-1.1,5.78l-.55.82a25.62,25.62,0,0,0-3.85,1.65c-1.37.83-1.92,3.3-1.92,3.3l1.1,1.38H368s2.2-.83,2.2-4.68a216,216,0,0,1,3-29.15C375.46,331.31,377.11,321.41,376,319.76Z" style="fill:#fff;stroke:#263238;strokeLinecap:round;strokeLinejoin:round"></path></clipPath><clipPath id="freepik--clip-path-4--inject-5"><path d="M265.51,188.31l-.36.29c-1,.83-3.62,3.26-3.33,5,.35,2.11,1.23,9.31,1.93,13.52s1.4,21.6,1.4,21.6-7.55,1.58-9.65,1.58,1.05,3.16,3,3.69,11.06,3.68,11.77,2.45-.18-6-.18-8.25,1.58-16.86,1.58-19.66a71.35,71.35,0,0,0-1.4-9.49l3.68-3-4.21-8.78A11.4,11.4,0,0,0,265.51,188.31Z" style="fill:#fff;stroke:#263238;strokeLinecap:round;strokeLinejoin:round"></path></clipPath><clipPath id="freepik--clip-path-5--inject-5"><path d="M287.63,178.13s-12.29,5.27-16,6.67a35.65,35.65,0,0,0-7.55,4.39l7.9,13.35s11.59-6.5,16.86-7.73a68.66,68.66,0,0,0,15-5.52c2.88-1.68,3.4-8.35,3.4-10.63S287.63,178.13,287.63,178.13Z" style="fill:#fff;stroke:#263238;strokeLinecap:round;strokeLinejoin:round"></path></clipPath><clipPath id="freepik--clip-path-6--inject-5"><path d="M281.13,132.65l4.57,8.08,4.74-4s-2.28-7-2.46-7.9a11.33,11.33,0,0,1-.18-1.93S282.54,132,281.13,132.65Z" style="fill:#CEA724;stroke:#263238;strokeLinecap:round;strokeLinejoin:round"></path></clipPath><clipPath id="freepik--clip-path-7--inject-5"><path d="M274.64,120.89s.35,8.43.87,11.24,1.41,2.8,2.64,2.8,7.9-3.68,9.13-5.09a7.2,7.2,0,0,0,1.4-3.68s3.51-1.94,3.16-3.69-1.75-3.69-7-4.92S275.34,117.9,274.64,120.89Z" style="fill:#fff;stroke:#263238;strokeLinecap:round;strokeLinejoin:round"></path></clipPath><clipPath id="freepik--clip-path-8--inject-5"><path d="M293.75,139.83s-4.37,1.56-3.31,6.87c.7,3.54,9.63,23.66,9.63,23.66s-21.4-3.33-23-3a8.92,8.92,0,0,0-4.56,3.6c-.53,1.15-2.11,4.1-1.23,4.1s1.58-2.46,1.58-2.46,2.46-.65,4-1.15,1.75-1,2.46-1,11.41,2.79,15.1,3.94,11.37,1.8,12.37.3-3.26-21.72-5.76-27.12S297.93,139.3,293.75,139.83Z" style="fill:#fff;stroke:#263238;strokeLinecap:round;strokeLinejoin:round"></path></clipPath><clipPath id="freepik--clip-path-9--inject-5"><path d="M235.75,124.6s.88,4.21,1.41,7,2.28,6.32,3.51,6.32,6-3.51,6-3.51a18.64,18.64,0,0,1,1.76,4.21,19.24,19.24,0,0,1,.35,3.34l4.21-4.21s-2.11-4.57-1.76-6.68,3.52-8.07,3-9.65-2.63-2.81-6.67-2.81S235.75,119.33,235.75,124.6Z" style="fill:#fff;stroke:#263238;strokeLinecap:round;strokeLinejoin:round"></path></clipPath><clipPath id="freepik--clip-path-10--inject-5"><path d="M270.38,177.62c-2,0-4.53,0-7.69-.22a20.46,20.46,0,0,1-10.45-3.66c-2.7,1.7-7.29,4.61-12.1,7.75-7.55,4.91-11.94,7.37-11.94,9.3s5.62,33,5.62,33l.7,4.39s-6.49,2.28-8.25,3.16a6.5,6.5,0,0,0-.69.4l5,1.73a55.41,55.41,0,0,0,6.54.15c1.23-.17,1.75,0,.52-8.77-.4-2.87-.35-24.76-.7-29.68,0,0,28.27-9.83,30.55-11.76A9.33,9.33,0,0,0,270.38,177.62Z" style="fill:#fff;stroke:#263238;strokeLinecap:round;strokeLinejoin:round"></path></clipPath><clipPath id="freepik--clip-path-11--inject-5"><path d="M254.72,172.18a14.84,14.84,0,0,0,8.07,2.11c5.1,0,6.85-1.93,6.85-1.93a10.71,10.71,0,0,1,1.41,5.79c-.36,2.81-3.87,6.5-6.15,7.73S239.44,199,239.44,199s-5.09-4.39-6.5-6.67-2.81-4.21-2.81-4.21,8.26-6.85,13-9.48S254.72,172.18,254.72,172.18Z" style="fill:#fff;stroke:#263238;strokeLinecap:round;strokeLinejoin:round"></path></clipPath><clipPath id="freepik--clip-path-12--inject-5"><path d="M253,137.77s-4.56.87-4.39,6.67c.12,3.86,5.62,26.69,5.62,26.69s-21.42-3.69-23-3.34a9.08,9.08,0,0,0-4.57,3.86c-.52,1.23-2.1,4.39-1.23,4.39s1.58-2.63,1.58-2.63,2.46-.7,4-1.23,1.76-1.05,2.46-1.05,11.41,3,15.1,4.21,10.36,3,11.59,1.58.35-23.53-1.23-29.67S257.17,137.94,253,137.77Z" style="fill:#fff;stroke:#263238;strokeLinecap:round;strokeLinejoin:round"></path></clipPath></defs><g id="freepik--background-simple--inject-5"><path d="M452.09,287.36c8.51-60.93-32.7-139.6-75.43-171-77.15-56.61-141.23-42.2-191.08-18.52s-57,95.73-91.38,129.7S18.24,314,70.46,355.22s116.31,9.26,170.9,4.12,127,13.38,166.15-7.21C434.86,337.75,448.33,314.29,452.09,287.36Z" style="fill:#CEA724"></path><path d="M452.09,287.36c8.51-60.93-32.7-139.6-75.43-171-77.15-56.61-141.23-42.2-191.08-18.52s-57,95.73-91.38,129.7S18.24,314,70.46,355.22s116.31,9.26,170.9,4.12,127,13.38,166.15-7.21C434.86,337.75,448.33,314.29,452.09,287.36Z" style="fill:#fff;opacity:0.8"></path></g><g id="freepik--Dunes--inject-5"><path d="M376.61,217.84C311.37,224.76,224,263,164.56,258.2c-27.64-2.22-57.81-10.36-82.17-18.43-30.8,33.5-58.24,78.93-11.93,115.45,52.22,41.18,116.31,9.26,170.9,4.12s127,13.38,166.15-7.21c27.35-14.38,40.82-37.84,44.58-64.77,2.71-19.36.38-40.51-5.41-61.36C425.47,219.57,400.94,215.26,376.61,217.84Z" style="fill:#CEA724"></path><path d="M376.61,217.84C311.37,224.76,224,263,164.56,258.2c-27.64-2.22-57.81-10.36-82.17-18.43-30.8,33.5-58.24,78.93-11.93,115.45,52.22,41.18,116.31,9.26,170.9,4.12s127,13.38,166.15-7.21c27.35-14.38,40.82-37.84,44.58-64.77,2.71-19.36.38-40.51-5.41-61.36C425.47,219.57,400.94,215.26,376.61,217.84Z" style="fill:#fff;opacity:0.6000000000000001"></path><path d="M158.13,257.58l-3.32-.39L153,257l-3.15-.44-1.86-.27-3.28-.53-1.69-.28c-1.36-.23-2.72-.47-4.08-.73l-.86-.15c-1.65-.31-3.3-.64-5-1l-1.39-.29-3.57-.76-1.78-.4-3.2-.73-1.82-.43-3.22-.79c-.57-.14-1.13-.27-1.69-.42-1.23-.3-2.45-.62-3.66-.94l-1.17-.3-4.8-1.3-.89-.25-3.83-1.09-1.54-.45-3.15-.92L95.77,244l-3-.93-1.54-.48-3.27-1-1.15-.36-4.38-1.43A231.82,231.82,0,0,0,66.9,258.36c10,4.81,20.47,7.92,30.86,7.92,32.36,0,55.72-5,67-8.06l-.18,0c-1.6-.13-3.22-.28-4.84-.45Z" style="fill:#fff;opacity:0.30000000000000004"></path><path d="M443.73,225.13l-2.41-.68-1-.28-2.72-.73-.29-.07c-4.36-1.13-8.84-2.15-13.39-3l-.25,0-3.4-.62c3.53,7.41,6,18.88-5.57,28.14-18.64,15,10.1,26.53-88.54,28.84s-161.57,26.52-193.41,46.13c-7.14,4.39-63,4.24-83.07,6.76,3.76,8.85,10.43,17.48,20.81,25.67,52.22,41.18,116.31,9.26,170.9,4.12s127,13.38,166.15-7.21c27.35-14.38,40.82-37.84,44.58-64.77,2.71-19.35.39-40.5-5.4-61.35l-1.61-.48Z" style="fill:#fff;opacity:0.30000000000000004"></path><path d="M407.51,352.13c27.35-14.38,40.82-37.84,44.58-64.77.16-1.1.29-2.2.41-3.31-6.41-2.1-13.07-4.2-20-6.24-58.26-17.3-136.71-33.45-240.79,3.46-66.56,23.6-117.22,34-145.11,38.42C49,332,56.25,344,70.46,355.22c52.22,41.18,116.31,9.26,170.9,4.12S368.35,372.72,407.51,352.13Z" style="fill:#CEA724"></path><path d="M407.51,352.13c27.35-14.38,40.82-37.84,44.58-64.77.16-1.1.29-2.2.41-3.31-6.41-2.1-13.07-4.2-20-6.24-58.26-17.3-136.71-33.45-240.79,3.46-66.56,23.6-117.22,34-145.11,38.42C49,332,56.25,344,70.46,355.22c52.22,41.18,116.31,9.26,170.9,4.12S368.35,372.72,407.51,352.13Z" style="fill:#fff;opacity:0.4"></path><path d="M428.17,276.53l-3.09-.89-.49-.14-3.77-1.06-.34-.1-3.66-1-.28-.07c-38.19-10.3-84.27-18.38-139.49-12.09,26.06,1.61,66.15,7,70.82,24.7,7,26.53-16.31,24.22-79.22,42.67-35.24,10.34-71,28.63-96.67,43.54,23.74-4.23,47.33-10.67,69.38-12.75,54.59-5.15,127,13.38,166.15-7.21,27.35-14.38,40.82-37.84,44.58-64.77.16-1.1.29-2.2.41-3.31h0q-4.62-1.51-9.41-3l-1-.3-3.69-1.14-1.2-.37-4.69-1.41-3.46-1Z" style="fill:#fff;opacity:0.30000000000000004"></path></g><g id="freepik--Camel--inject-5"><path d="M148.06,151.2s1.1-6.32,4.12-6.87,5.78,3.85,3.58,6.32-3.85,4.13-3.85,4.13" style="fill:#fff;stroke:#263238;strokeLinecap:round;strokeLinejoin:round"></path><path d="M313.53,258.82s-6,29.41-3.79,40.79,4.74,20.56,1.89,31.62-12,25.3-13.91,28.46.32,4.11-2.84,4.43-6.64.32-7.28,1.27-3.48,4.74-1.89,5.37,11.38.32,12.33-.32,2.53-6.95,2.53-6.95,2.84-4.11,5.37-7.91,13.28-19,15.81-24.35-1.58-15.81,1.9-22.45,12.33-17.07,13.6-18.65,5.69-18.34,2.21-30S317.64,247.75,313.53,258.82Z" style="fill:#fff"></path><g style="clip-path:url(#freepik--clip-path--inject-5)"><path d="M309.74,258.82s-6,29.41-3.8,40.79,4.75,20.56,1.9,31.62-12,25.3-13.91,28.46.31,4.11-2.85,4.43-6.64.32-7.27,1.27-3.48,4.74-1.9,5.37,11.38.32,12.33-.32,2.53-6.95,2.53-6.95,2.85-4.11,5.38-7.91,13.28-19,15.81-24.35-1.58-15.81,1.9-22.45,12.33-17.07,13.59-18.65,5.7-18.34,2.22-30S313.85,247.75,309.74,258.82Z" style="fill:#CEA724"></path><path d="M309.74,258.82s-6,29.41-3.8,40.79,4.75,20.56,1.9,31.62-12,25.3-13.91,28.46.31,4.11-2.85,4.43-6.64.32-7.27,1.27-3.48,4.74-1.9,5.37,11.38.32,12.33-.32,2.53-6.95,2.53-6.95,2.85-4.11,5.38-7.91,13.28-19,15.81-24.35-1.58-15.81,1.9-22.45,12.33-17.07,13.59-18.65,5.7-18.34,2.22-30S313.85,247.75,309.74,258.82Z" style="fill:#fff;opacity:0.5"></path></g><path d="M313.53,258.82s-6,29.41-3.79,40.79,4.74,20.56,1.89,31.62-12,25.3-13.91,28.46.32,4.11-2.84,4.43-6.64.32-7.28,1.27-3.48,4.74-1.89,5.37,11.38.32,12.33-.32,2.53-6.95,2.53-6.95,2.84-4.11,5.37-7.91,13.28-19,15.81-24.35-1.58-15.81,1.9-22.45,12.33-17.07,13.6-18.65,5.69-18.34,2.21-30S317.64,247.75,313.53,258.82Z" style="fill:none;stroke:#263238;strokeLinecap:round;strokeLinejoin:round"></path><path d="M337.25,290.13c1.26-1.58,5.69-18.34,2.21-30s-21.82-12.34-25.93-1.27a261,261,0,0,0-4,27.44c6.22,8.44,12.51,9.49,20.11,13.44C333.05,295.15,336.5,291.07,337.25,290.13Z" style="fill:#263238;stroke:#263238;strokeLinecap:round;strokeLinejoin:round"></path><path d="M218.67,274s15.49,48.38,18,57.23,5.38,9.81,6.64,14.23,1.27,16.45.64,19-7.28,3.47-8.54,4.74-2.85,2.85-1.58,4.11,9.8,0,11.7,0,2.53-3.79,2.53-6.32-.64-13.6-.64-19.61-1.26-10.12-2.21-19-6-34.47-6-44.27A73.25,73.25,0,0,0,237.64,268S228.79,261.67,218.67,274Z" style="fill:#fff"></path><g style="clip-path:url(#freepik--clip-path-2--inject-5)"><path d="M214.92,274.53s15.5,48.39,18,57.24,5.37,9.8,6.64,14.23,1.26,16.44.63,19-7.27,3.48-8.54,4.74-2.84,2.85-1.58,4.12,9.8,0,11.7,0,2.53-3.8,2.53-6.33-.63-13.6-.63-19.6-1.27-10.12-2.22-19-6-34.46-6-44.27a73.09,73.09,0,0,0-1.58-16.12S225,262.2,214.92,274.53Z" style="fill:#CEA724"></path><path d="M214.92,274.53s15.5,48.39,18,57.24,5.37,9.8,6.64,14.23,1.26,16.44.63,19-7.27,3.48-8.54,4.74-2.84,2.85-1.58,4.12,9.8,0,11.7,0,2.53-3.8,2.53-6.33-.63-13.6-.63-19.6-1.27-10.12-2.22-19-6-34.46-6-44.27a73.09,73.09,0,0,0-1.58-16.12S225,262.2,214.92,274.53Z" style="fill:#fff;opacity:0.5"></path></g><path d="M218.67,274s15.49,48.38,18,57.23,5.38,9.81,6.64,14.23,1.27,16.45.64,19-7.28,3.47-8.54,4.74-2.85,2.85-1.58,4.11,9.8,0,11.7,0,2.53-3.79,2.53-6.32-.64-13.6-.64-19.61-1.26-10.12-2.21-19-6-34.47-6-44.27A73.25,73.25,0,0,0,237.64,268S228.79,261.67,218.67,274Z" style="fill:none;stroke:#263238;strokeLinecap:round;strokeLinejoin:round"></path><path d="M237.64,268s-8.85-6.32-19,6l5.09,15.94a53.57,53.57,0,0,1,15.49-4.64c0-.41,0-.81,0-1.18A73.25,73.25,0,0,0,237.64,268Z" style="fill:#263238;stroke:#263238;strokeLinecap:round;strokeLinejoin:round"></path><path d="M376,319.76c-1.1-1.65-7.7-5.77-14.29-13.47a48.32,48.32,0,0,1-10.18-20.07c-.82-3.85-1.37-18.15-1.37-26.4a86.3,86.3,0,0,0-1.65-15.95s5.77,19,9.07,26.95,1.93,17.87,1.93,17.87a9.75,9.75,0,0,0-1.1,4.4c0,2.47,2.47,5.5,2.47,5.5a10.71,10.71,0,0,0,1.74-5.51,8.44,8.44,0,0,0-1.19-4.67s.61-9.4-1.37-16.22c-1.55-5.31-7.15-21.17-9.35-26.4s-5.23-15.39-5.23-15.39-9.35-22.55-28.32-32.45S266,184.47,247.33,187.22s-29.43,15.4-36.85,20.08-13.2,7.7-20.9,7.7-15.4-8.53-19.25-20.35-9.07-33.27-9.07-33.27-1.93-8.8-5.5-10.73-16.77.83-21.45,3-14.3,6-14.3,6-14.57,5.5-14.85,11.82,3,5.22,3,5.22-.15,2.81,1.49,3.75,3.25-1.89,6.12-3.23c3.08-.79,7-1.72,9.44-1.34,1.81.28,4,2.05,6.74,3.69,2.83,2.15,9.27,7.61,11.87,14.38,2.58,12.24,7.58,31.08,15.21,39.95,11.82,13.75,23.1,21.17,28.6,26.12s12.09,13.48,12.09,16.5-6.87,34.1-11.54,45.1-22.32,45.39-24.52,48.69-8.8,4.68-10.17,6.6-1.38,3.3-.28,3.3h11.55a5.72,5.72,0,0,0,2.48-3c.82-2.2-1.1-6.6.82-8.53s22.32-38.79,26.72-42.37,6-13.47,10.17-19.8l16.5-25.29s8.25-6,14-9.35,45.92-5.5,57.75-6.6,22.54-1.65,22.54-1.65,4.68,17.87,10.18,24.47,21.89,24.38,28.32,31.35c7.59,8.23,8.25,15.12,9.35,17.05s1.1,23.64,1.65,28.59-.55,4.95-1.1,5.78l-.55.82a25.62,25.62,0,0,0-3.85,1.65c-1.37.83-1.92,3.3-1.92,3.3l1.1,1.38H368s2.2-.83,2.2-4.68a216,216,0,0,1,3-29.15C375.46,331.31,377.11,321.41,376,319.76Z" style="fill:#fff"></path><g style="clip-path:url(#freepik--clip-path-3--inject-5)"><path d="M371,323.6c-1.94-5.8-14-17.4-18.86-25.13s-3.38-27.56-5.31-38.19-6.77-27.56-12.57-35.29-43-26.1-62.61-16.48-74.19,16-74.19,16-12.57,2.9-19.82-3.39S165.07,196,161.2,183.42s-1-19.82-4.35-23.69-8.7-4.35-12.09-3.87a53.15,53.15,0,0,0-11.6,3.39c-3.38,1.45,5.8,4.83,5.8,4.83s-11.12-2.42-20.3,1.45a33.93,33.93,0,0,0-13.11,9.59c.83,2.25,2.64,1.65,2.64,1.65s-.15,2.81,1.49,3.75,3.25-1.89,6.12-3.23c3.08-.79,7-1.72,9.44-1.34,1.81.28,4,2.05,6.74,3.69,2.83,2.15,9.27,7.61,11.87,14.38,2.58,12.24,7.58,31.08,15.21,39.95,11.82,13.75,23.1,21.17,28.6,26.12s12.09,13.48,12.09,16.5-6.87,34.1-11.54,45.1c-3.41,8-13.67,28.39-19.86,40.18,6.63-11.53,21.39-37,26.2-44.07,6.29-9.18,16.92-27.07,21.76-37.22s15.95-12.57,28-12.57,71.54-10.15,71.54-10.15S316.37,269,327,284.93s23.2,22.72,33.84,35.77,6.28,40.13,7.25,37.23S372.93,329.4,371,323.6Z" style="fill:#CEA724"></path><path d="M371,323.6c-1.94-5.8-14-17.4-18.86-25.13s-3.38-27.56-5.31-38.19-6.77-27.56-12.57-35.29-43-26.1-62.61-16.48-74.19,16-74.19,16-12.57,2.9-19.82-3.39S165.07,196,161.2,183.42s-1-19.82-4.35-23.69-8.7-4.35-12.09-3.87a53.15,53.15,0,0,0-11.6,3.39c-3.38,1.45,5.8,4.83,5.8,4.83s-11.12-2.42-20.3,1.45a33.93,33.93,0,0,0-13.11,9.59c.83,2.25,2.64,1.65,2.64,1.65s-.15,2.81,1.49,3.75,3.25-1.89,6.12-3.23c3.08-.79,7-1.72,9.44-1.34,1.81.28,4,2.05,6.74,3.69,2.83,2.15,9.27,7.61,11.87,14.38,2.58,12.24,7.58,31.08,15.21,39.95,11.82,13.75,23.1,21.17,28.6,26.12s12.09,13.48,12.09,16.5-6.87,34.1-11.54,45.1c-3.41,8-13.67,28.39-19.86,40.18,6.63-11.53,21.39-37,26.2-44.07,6.29-9.18,16.92-27.07,21.76-37.22s15.95-12.57,28-12.57,71.54-10.15,71.54-10.15S316.37,269,327,284.93s23.2,22.72,33.84,35.77,6.28,40.13,7.25,37.23S372.93,329.4,371,323.6Z" style="fill:#fff;opacity:0.5"></path></g><path d="M376,319.76c-1.1-1.65-7.7-5.77-14.29-13.47a48.32,48.32,0,0,1-10.18-20.07c-.82-3.85-1.37-18.15-1.37-26.4a86.3,86.3,0,0,0-1.65-15.95s5.77,19,9.07,26.95,1.93,17.87,1.93,17.87a9.75,9.75,0,0,0-1.1,4.4c0,2.47,2.47,5.5,2.47,5.5a10.71,10.71,0,0,0,1.74-5.51,8.44,8.44,0,0,0-1.19-4.67s.61-9.4-1.37-16.22c-1.55-5.31-7.15-21.17-9.35-26.4s-5.23-15.39-5.23-15.39-9.35-22.55-28.32-32.45S266,184.47,247.33,187.22s-29.43,15.4-36.85,20.08-13.2,7.7-20.9,7.7-15.4-8.53-19.25-20.35-9.07-33.27-9.07-33.27-1.93-8.8-5.5-10.73-16.77.83-21.45,3-14.3,6-14.3,6-14.57,5.5-14.85,11.82,3,5.22,3,5.22-.15,2.81,1.49,3.75,3.25-1.89,6.12-3.23c3.08-.79,7-1.72,9.44-1.34,1.81.28,4,2.05,6.74,3.69,2.83,2.15,9.27,7.61,11.87,14.38,2.58,12.24,7.58,31.08,15.21,39.95,11.82,13.75,23.1,21.17,28.6,26.12s12.09,13.48,12.09,16.5-6.87,34.1-11.54,45.1-22.32,45.39-24.52,48.69-8.8,4.68-10.17,6.6-1.38,3.3-.28,3.3h11.55a5.72,5.72,0,0,0,2.48-3c.82-2.2-1.1-6.6.82-8.53s22.32-38.79,26.72-42.37,6-13.47,10.17-19.8l16.5-25.29s8.25-6,14-9.35,45.92-5.5,57.75-6.6,22.54-1.65,22.54-1.65,4.68,17.87,10.18,24.47,21.89,24.38,28.32,31.35c7.59,8.23,8.25,15.12,9.35,17.05s1.1,23.64,1.65,28.59-.55,4.95-1.1,5.78l-.55.82a25.62,25.62,0,0,0-3.85,1.65c-1.37.83-1.92,3.3-1.92,3.3l1.1,1.38H368s2.2-.83,2.2-4.68a216,216,0,0,1,3-29.15C375.46,331.31,377.11,321.41,376,319.76Z" style="fill:none;stroke:#263238;strokeLinecap:round;strokeLinejoin:round"></path><path d="M108.19,176.77s.51-2.08,4-2.08" style="fill:#fff;stroke:#263238;strokeLinecap:round;strokeLinejoin:round"></path><path d="M155.21,176c-5,5.77-13.47,6.6-13.47,6.6s-4.21,0-9.47-4.46" style="fill:none;stroke:#263238;strokeLinecap:round;strokeLinejoin:round"></path><path d="M129.06,160.1s3.25,2.52,9.38,2.52" style="fill:none;stroke:#263238;strokeLinecap:round;strokeLinejoin:round"></path><path d="M130.77,161.58a2.78,2.78,0,0,0,1.51,1.85c1.38.81,2.89-.93,2.89-.93Z" style="fill:#263238"></path><path d="M111,168.94s.27-.79,2.39-1.5" style="fill:none;stroke:#263238;strokeLinecap:round;strokeLinejoin:round"></path><path d="M151.08,153.4s1.93-6.6,6.6-9.35,5.5,3,4.4,5.5-7.7,5.23-7.7,5.23" style="fill:#fff;stroke:#263238;strokeLinecap:round;strokeLinejoin:round"></path><path d="M127.67,175.91s5.7,24.69,31.91,31.53,53-19.75,59.07-25.26,10-9.85,10-9.85" style="fill:none;stroke:#263238;strokeLinecap:round;strokeLinejoin:round"></path><path d="M123.59,157.8s3.57,11.55,3.57,19.52" style="fill:none;stroke:#263238;strokeLinecap:round;strokeLinejoin:round;strokeWidth:2px"></path><path d="M127.16,171.83s23.65,2.2,35.47-4.13" style="fill:none;stroke:#263238;strokeLinecap:round;strokeLinejoin:round;strokeWidth:2px"></path><path d="M192.42,213.6s4.43,34.47,6.33,46.49,3.16,22.76,3.16,22.76,16.13-6,33.52-6,29.41,1.58,38.58,1.26,27.82-5.06,27.82-5.06l-.63,3.48s3.48-.63,9.49-4.43,4.74-4.42,12-8.85,17.08-24.35,18-27.2,3.79-9.48,3.79-9.48-8.22-15.18-17.71-23.09-23.4-12.64-29.09-14.22-28.46-3.48-37.94-4.12-21.51,1.59-29.1,6S213.93,204.43,207,207.91A99.45,99.45,0,0,1,192.42,213.6Z" style="fill:#CEA724;stroke:#263238;strokeLinecap:round;strokeLinejoin:round"></path><path d="M274,278.11c.74,0,1.56-.08,2.42-.16l-.5-91.51c-2.27-.21-4.51-.4-6.64-.58l.5,92.28C271.26,278.16,272.67,278.16,274,278.11Z" style="fill:#263238"></path><path d="M255.52,185.05a62.76,62.76,0,0,0-6.62.49l5.7,91.88,6.67.37Z" style="fill:#263238"></path><path d="M220.61,198.31c-2,1.59-4.08,3.2-6.07,4.68l10,74.57c2.14-.27,4.36-.47,6.62-.59Z" style="fill:#263238"></path><path d="M304.66,275.34l5.13-81.79c-2.31-1-4.52-1.84-6.49-2.53L298.1,274c2.28-.54,3.73-.91,3.73-.91l-.63,3.48A18.48,18.48,0,0,0,304.66,275.34Z" style="fill:#263238"></path><path d="M240.17,276.89q3.5.06,6.69.18l-8.47-89.24a41.16,41.16,0,0,0-6.42,2.62Z" style="fill:#263238"></path><path d="M199.19,211.29,209,280.65c1.88-.51,4.07-1,6.48-1.56l-10-70.47C203.33,209.65,201.13,210.55,199.19,211.29Z" style="fill:#263238"></path><path d="M338.2,216.5v25.05a58.06,58.06,0,0,0,2.53-5.5c.94-2.84,3.79-9.48,3.79-9.48A116.6,116.6,0,0,0,338.2,216.5Z" style="fill:#263238"></path><path d="M333.6,249.87l1.84-37.11a68.12,68.12,0,0,0-6.29-7.16l-2.7,54.34A68.32,68.32,0,0,0,333.6,249.87Z" style="fill:#263238"></path><path d="M294.64,188.62c-1.81-.31-4.08-.62-6.61-.92l-3.23,89.05c2.28-.41,4.56-.87,6.69-1.32Z" style="fill:#263238"></path><path d="M321.69,199.76A72.22,72.22,0,0,0,315.1,196c-.19,17.43-.89,47.73-1.59,74.16,2.53-1.9,3.18-3,6.79-5.39C320.85,243.45,321.48,217.29,321.69,199.76Z" style="fill:#263238"></path><path d="M317.17,198c-1.78-3.8-3.15-1.39-4.45-4.25s2.85-25.44-.78-25.18-4.94,19.73-8.05,20.77c-2.25.75-12.59-3.23-24.71-5.5-.48-5.39-1.59-14.34-3.59-14s-3.87,8.4-4.7,12.78c-2.07-.2-4.15-.31-6.21-.31-17.39,0-28.3,4.41-28.3,4.41s-.78,0-.78-4.93-.26-13.24-5.45-11.17-7.79,30.12-7.79,30.12c-.52,2.34,2.85,2.86,8.57-1s14.8-7.27,35.83-7.27,39.47,7.53,44.4,8.57S319,201.75,317.17,198Z" style="fill:#263238;stroke:#263238;strokeLinecap:round;strokeLinejoin:round"></path></g><g id="freepik--Floor--inject-5"><path d="M416.92,379.3s-29.8-9.7-111.57-10.39S87.08,381.38,67,387.62,50.35,398,128,404.94s221.74,5.54,269.55-2.08S435.62,390.39,416.92,379.3Z" style="fill:#CEA724"></path><path d="M416.92,379.3s-29.8-9.7-111.57-10.39S87.08,381.38,67,387.62,50.35,398,128,404.94s221.74,5.54,269.55-2.08S435.62,390.39,416.92,379.3Z" style="fill:#fff;opacity:0.5"></path><g style="opacity:0.30000000000000004"><path d="M416.92,379.3s-12.85-4.18-44.81-7.25l-2.6,1s34.24,1.39,37.7,8.32-12.47,8.32-44.34,11.09-24.26,11.78-36.73,15.24c-.72.2-1.55.41-2.48.62,31.29-1.08,57.92-2.93,73.85-5.47C445.33,395.24,435.62,390.39,416.92,379.3Z" style="fill:#fff"></path><path d="M287.78,409.2c14.5-4.59,31-10.53,32.12-14.65,2.08-7.63-29.06-10.86-17.64-16.17,6.53-3.05,15.91-6.62,22.73-9.11q-9.27-.27-19.64-.36l-3.83,0c-8.3,1.05-15.81,2.44-19,4.18-9,4.85,22.86,14.55,18,20.09s-61,11.09-75.53,15.25l-2.83.77C244,409.52,266.38,409.52,287.78,409.2Z" style="fill:#fff"></path><path d="M219.43,389c-7.62,3.47-29.11,4.85-48.51,13.86-3.82,1.78-6.13,3.25-7.39,4.48,5.34.27,10.82.51,16.41.73,7.56-3.94,19.14-9.06,31.87-11.44,22.17-4.16,31.87-11.78,22.86-15.94C228.86,378,249,373,266.07,369.44c-10.36.33-21.08.78-31.93,1.34-11.33,2.21-21.57,4.8-23,7.14C207.65,383.46,227.05,385.54,219.43,389Z" style="fill:#fff"></path></g></g><g id="freepik--character-2--inject-5"><path d="M265.51,188.31l-.36.29c-1,.83-3.62,3.26-3.33,5,.35,2.11,1.23,9.31,1.93,13.52s1.4,21.6,1.4,21.6-7.55,1.58-9.65,1.58,1.05,3.16,3,3.69,11.06,3.68,11.77,2.45-.18-6-.18-8.25,1.58-16.86,1.58-19.66a71.35,71.35,0,0,0-1.4-9.49l3.68-3-4.21-8.78A11.4,11.4,0,0,0,265.51,188.31Z" style="fill:#fff"></path><g style="clip-path:url(#freepik--clip-path-4--inject-5)"><path d="M270.25,199l2.63-2.13.37-2.28-3.53-7.35a11.4,11.4,0,0,0-4.21,1.05l-.36.29c-1,.83-3.62,3.26-3.33,5,.35,2.11,1.23,9.31,1.93,13.52s1.4,21.6,1.4,21.6-7.55,1.58-9.65,1.58,1.05,3.16,3,3.69c1,.26,3.81,1.21,6.46,1.91,1.69-2.27,1.87-6.66,1.87-11.23,0-5.13-.86-28.65-.86-28.65l4.46,3.84C270.31,199.34,270.25,199,270.25,199Z" style="fill:#CEA724"></path><path d="M270.25,199l2.63-2.13.37-2.28-3.53-7.35a11.4,11.4,0,0,0-4.21,1.05l-.36.29c-1,.83-3.62,3.26-3.33,5,.35,2.11,1.23,9.31,1.93,13.52s1.4,21.6,1.4,21.6-7.55,1.58-9.65,1.58,1.05,3.16,3,3.69c1,.26,3.81,1.21,6.46,1.91,1.69-2.27,1.87-6.66,1.87-11.23,0-5.13-.86-28.65-.86-28.65l4.46,3.84C270.31,199.34,270.25,199,270.25,199Z" style="fill:#fff;opacity:0.5"></path></g><path d="M265.51,188.31l-.36.29c-1,.83-3.62,3.26-3.33,5,.35,2.11,1.23,9.31,1.93,13.52s1.4,21.6,1.4,21.6-7.55,1.58-9.65,1.58,1.05,3.16,3,3.69,11.06,3.68,11.77,2.45-.18-6-.18-8.25,1.58-16.86,1.58-19.66a71.35,71.35,0,0,0-1.4-9.49l3.68-3-4.21-8.78A11.4,11.4,0,0,0,265.51,188.31Z" style="fill:none;stroke:#263238;strokeLinecap:round;strokeLinejoin:round"></path><path d="M287.63,178.13s-12.29,5.27-16,6.67a35.65,35.65,0,0,0-7.55,4.39l7.9,13.35s11.59-6.5,16.86-7.73a68.66,68.66,0,0,0,15-5.52c2.88-1.68,3.4-8.35,3.4-10.63S287.63,178.13,287.63,178.13Z" style="fill:#fff"></path><g style="clip-path:url(#freepik--clip-path-5--inject-5)"><path d="M305.94,186.58c-2,.79-4.51,1.74-7.58,2.68-7.36,2.24-12.95,4.6-12.95,4.6s-2.14-4.07-4.06-4.71,1.5,2.78,1.28,3.64-4.92,3.21-7.27,3.21-4.28-5.14-4.28-5.14l13.48-9a11.91,11.91,0,0,0,6.2,3.85c3.85.86-1.93-4.06-1.93-4.06s6.42,4.92,7.06,4.92-3.21-3.42-4.06-5.78,3.63,1.93,7.48,1.71a20.78,20.78,0,0,0,7.7-2.35l-1.34-2.38c-4.71-.85-18,.34-18,.34s-12.29,5.27-16,6.67a35.65,35.65,0,0,0-7.55,4.39l7.9,13.35s11.59-6.5,16.86-7.73a68.66,68.66,0,0,0,15-5.52A5.49,5.49,0,0,0,305.94,186.58Z" style="fill:#CEA724"></path><path d="M305.94,186.58c-2,.79-4.51,1.74-7.58,2.68-7.36,2.24-12.95,4.6-12.95,4.6s-2.14-4.07-4.06-4.71,1.5,2.78,1.28,3.64-4.92,3.21-7.27,3.21-4.28-5.14-4.28-5.14l13.48-9a11.91,11.91,0,0,0,6.2,3.85c3.85.86-1.93-4.06-1.93-4.06s6.42,4.92,7.06,4.92-3.21-3.42-4.06-5.78,3.63,1.93,7.48,1.71a20.78,20.78,0,0,0,7.7-2.35l-1.34-2.38c-4.71-.85-18,.34-18,.34s-12.29,5.27-16,6.67a35.65,35.65,0,0,0-7.55,4.39l7.9,13.35s11.59-6.5,16.86-7.73a68.66,68.66,0,0,0,15-5.52A5.49,5.49,0,0,0,305.94,186.58Z" style="fill:#fff;opacity:0.5"></path></g><path d="M287.63,178.13s-12.29,5.27-16,6.67a35.65,35.65,0,0,0-7.55,4.39l7.9,13.35s11.59-6.5,16.86-7.73a68.66,68.66,0,0,0,15-5.52c2.88-1.68,3.4-8.35,3.4-10.63S287.63,178.13,287.63,178.13Z" style="fill:none;stroke:#263238;strokeLinecap:round;strokeLinejoin:round"></path><path d="M285,140.73s-1.76,6.85-1.76,10.89,3.51,15.8,3.86,17.2-.2,7,.5,8.42,13.9,5.63,17.06,4.58,3.16-6,2.11-11.07-2.46-16.33-6.5-24.75-5.62-10-8.08-9.31S286.22,138.27,285,140.73Z" style="fill:#CEA724;stroke:#263238;strokeLinecap:round;strokeLinejoin:round"></path><path d="M281.13,132.65l4.57,8.08,4.74-4s-2.28-7-2.46-7.9a11.33,11.33,0,0,1-.18-1.93S282.54,132,281.13,132.65Z" style="fill:#CEA724"></path><g style="clip-path:url(#freepik--clip-path-6--inject-5)"><path d="M281.13,132.65l4.57,8.08,4.74-4s-2.28-7-2.46-7.9a11.33,11.33,0,0,1-.18-1.93S282.54,132,281.13,132.65Z" style="fill:#fff;opacity:0.5"></path></g><path d="M281.13,132.65l4.57,8.08,4.74-4s-2.28-7-2.46-7.9a11.33,11.33,0,0,1-.18-1.93S282.54,132,281.13,132.65Z" style="fill:none;stroke:#263238;strokeLinecap:round;strokeLinejoin:round"></path><path d="M280,119.06s5.28,5.61,6.28,5.61h2.31l-.63,4.12s7.6-.77,3.27-10.4S280,119.06,280,119.06Z" style="fill:#263238;stroke:#263238;strokeLinecap:round;strokeLinejoin:round"></path><path d="M274.64,120.89s.35,8.43.87,11.24,1.41,2.8,2.64,2.8,7.9-3.68,9.13-5.09a7.2,7.2,0,0,0,1.4-3.68s3.51-1.94,3.16-3.69-1.75-3.69-7-4.92S275.34,117.9,274.64,120.89Z" style="fill:#fff"></path><g style="clip-path:url(#freepik--clip-path-7--inject-5)"><path d="M284.82,117.55c-5.27-1.23-9.48.35-10.18,3.34,0,0,.05,1.27.14,3l14.69-.37a31.22,31.22,0,0,0-5.13,5.35c-1.13,1.78-5.92,4.17-8.2,5.23.51.85,1.18.85,2,.85,1.23,0,7.9-3.68,9.13-5.09a7.2,7.2,0,0,0,1.4-3.68s3.51-1.94,3.16-3.69S290.09,118.78,284.82,117.55Z" style="fill:#CEA724"></path><path d="M284.82,117.55c-5.27-1.23-9.48.35-10.18,3.34,0,0,.05,1.27.14,3l14.69-.37a31.22,31.22,0,0,0-5.13,5.35c-1.13,1.78-5.92,4.17-8.2,5.23.51.85,1.18.85,2,.85,1.23,0,7.9-3.68,9.13-5.09a7.2,7.2,0,0,0,1.4-3.68s3.51-1.94,3.16-3.69S290.09,118.78,284.82,117.55Z" style="fill:#fff;opacity:0.5"></path></g><path d="M274.64,120.89s.35,8.43.87,11.24,1.41,2.8,2.64,2.8,7.9-3.68,9.13-5.09a7.2,7.2,0,0,0,1.4-3.68s3.51-1.94,3.16-3.69-1.75-3.69-7-4.92S275.34,117.9,274.64,120.89Z" style="fill:none;stroke:#263238;strokeLinecap:round;strokeLinejoin:round"></path><path d="M283.77,119.83s1.4,3.34,2.45,3.34,2.46-1.93,2.46-1.93A17.11,17.11,0,0,0,283.77,119.83Z" style="fill:#263238;stroke:#263238;strokeLinecap:round;strokeLinejoin:round"></path><path d="M274.81,118.43s1.1-6.32,1.83-7.9,7.11-2.28,10.76-1.76a9.46,9.46,0,0,1,1.37.31c2.71.84,5,2.13,4.79,5l-.53,8.74Z" style="fill:#263238;stroke:#263238;strokeLinecap:round;strokeLinejoin:round"></path><path d="M274.81,118.43s-8.6,2.11-7.55,2.81,17.56-.53,17.56-.53S277.62,119,274.81,118.43Z" style="fill:#263238;stroke:#263238;strokeLinecap:round;strokeLinejoin:round"></path><polygon points="290.26 133.88 282.54 140.2 282.19 144.24 292.72 137.04 290.26 133.88" style="fill:#fff;stroke:#263238;strokeLinecap:round;strokeLinejoin:round"></polygon><path d="M293.75,139.83s-4.37,1.56-3.31,6.87c.7,3.54,9.63,23.66,9.63,23.66s-21.4-3.33-23-3a8.92,8.92,0,0,0-4.56,3.6c-.53,1.15-2.11,4.1-1.23,4.1s1.58-2.46,1.58-2.46,2.46-.65,4-1.15,1.75-1,2.46-1,11.41,2.79,15.1,3.94,11.37,1.8,12.37.3-3.26-21.72-5.76-27.12S297.93,139.3,293.75,139.83Z" style="fill:#fff"></path><g style="clip-path:url(#freepik--clip-path-8--inject-5)"><path d="M305.27,162.59c-1.14-.07-2.07-.17-3.39-.17-.84,0-2.88-.4-5.63-.85,2,4.76,3.82,8.79,3.82,8.79l6.61,0C306.38,168.18,305.88,165.44,305.27,162.59Z" style="fill:#CEA724"></path><path d="M300.07,170.36s-21.4-3.33-23-3a8.92,8.92,0,0,0-4.56,3.6c-.53,1.15-2.11,4.1-1.23,4.1s1.58-2.46,1.58-2.46,2.46-.65,4-1.15,1.75-1,2.46-1c.25,0,1.83.37,3.92.89Z" style="fill:#CEA724"></path><g style="opacity:0.5"><path d="M305.27,162.59c-1.14-.07-2.07-.17-3.39-.17-.84,0-2.88-.4-5.63-.85,2,4.76,3.82,8.79,3.82,8.79l6.61,0C306.38,168.18,305.88,165.44,305.27,162.59Z" style="fill:#fff"></path><path d="M300.07,170.36s-21.4-3.33-23-3a8.92,8.92,0,0,0-4.56,3.6c-.53,1.15-2.11,4.1-1.23,4.1s1.58-2.46,1.58-2.46,2.46-.65,4-1.15,1.75-1,2.46-1c.25,0,1.83.37,3.92.89Z" style="fill:#fff"></path></g></g><path d="M293.75,139.83s-4.37,1.56-3.31,6.87c.7,3.54,9.63,23.66,9.63,23.66s-21.4-3.33-23-3a8.92,8.92,0,0,0-4.56,3.6c-.53,1.15-2.11,4.1-1.23,4.1s1.58-2.46,1.58-2.46,2.46-.65,4-1.15,1.75-1,2.46-1,11.41,2.79,15.1,3.94,11.37,1.8,12.37.3-3.26-21.72-5.76-27.12S297.93,139.3,293.75,139.83Z" style="fill:none;stroke:#263238;strokeLinecap:round;strokeLinejoin:round"></path><path d="M291.49,139.5s-2.46,3.16-2.63,5.62,6.49,23,6.49,23,5.8.35,7.73-.18,4.57-1.4,4.57-1.4-3.16-16.15-5.62-21.42S297.81,136.52,291.49,139.5Z" style="fill:#CEA724;stroke:#263238;strokeLinecap:round;strokeLinejoin:round"></path><path d="M263.93,229a73,73,0,0,1-8.43,1.33c-2.11,0,1.05,3.16,3,3.68s11.06,3.69,11.77,2.46a7.74,7.74,0,0,0,.2-3.39l-5.61-1.72Z" style="fill:#263238;stroke:#263238;strokeLinecap:round;strokeLinejoin:round"></path><path d="M270.46,235.63c-1.64-.36-4.93-1.14-9.35-2.57a18.81,18.81,0,0,1-5.91-2.75c-1.46.32,1.46,3.16,3.28,3.65s11.06,3.69,11.77,2.46A2.29,2.29,0,0,0,270.46,235.63Z" style="fill:#fff;stroke:#263238;strokeLinecap:round;strokeLinejoin:round"></path></g><g id="freepik--character-1--inject-5"><path d="M252.26,128.11s2.63.88,3.33,2.46,2.29,8.78,3.52,15.1,5.44,10.71,7.2,7.2,3.33-7.2,1.4-12.12-4.39-4-4.74-6.5,0-5.44-2.46-6.32a13.11,13.11,0,0,0-5.62-.35,11,11,0,0,1-2.28-.53Z" style="fill:#263238;stroke:#263238;strokeLinecap:round;strokeLinejoin:round"></path><path d="M235.75,124.6s.88,4.21,1.41,7,2.28,6.32,3.51,6.32,6-3.51,6-3.51a18.64,18.64,0,0,1,1.76,4.21,19.24,19.24,0,0,1,.35,3.34l4.21-4.21s-2.11-4.57-1.76-6.68,3.52-8.07,3-9.65-2.63-2.81-6.67-2.81S235.75,119.33,235.75,124.6Z" style="fill:#fff"></path><g style="clip-path:url(#freepik--clip-path-9--inject-5)"><path d="M251.2,131.09a15.26,15.26,0,0,1,.83-2.51l-12,9.12a1.07,1.07,0,0,0,.6.24c1.23,0,6-3.51,6-3.51a18.64,18.64,0,0,1,1.76,4.21,19.24,19.24,0,0,1,.35,3.34l4.21-4.21S250.85,133.2,251.2,131.09Z" style="fill:#CEA724"></path><path d="M254.19,121.44c-.53-1.58-2.63-2.81-6.67-2.81s-11.77.7-11.77,6c0,0,.29,1.36.63,3.05l16.28-.66C253.57,124.73,254.49,122.35,254.19,121.44Z" style="fill:#CEA724"></path><g style="opacity:0.5"><path d="M251.2,131.09a15.26,15.26,0,0,1,.83-2.51l-12,9.12a1.07,1.07,0,0,0,.6.24c1.23,0,6-3.51,6-3.51a18.64,18.64,0,0,1,1.76,4.21,19.24,19.24,0,0,1,.35,3.34l4.21-4.21S250.85,133.2,251.2,131.09Z" style="fill:#fff"></path><path d="M254.19,121.44c-.53-1.58-2.63-2.81-6.67-2.81s-11.77.7-11.77,6c0,0,.29,1.36.63,3.05l16.28-.66C253.57,124.73,254.49,122.35,254.19,121.44Z" style="fill:#fff"></path></g></g><path d="M235.75,124.6s.88,4.21,1.41,7,2.28,6.32,3.51,6.32,6-3.51,6-3.51a18.64,18.64,0,0,1,1.76,4.21,19.24,19.24,0,0,1,.35,3.34l4.21-4.21s-2.11-4.57-1.76-6.68,3.52-8.07,3-9.65-2.63-2.81-6.67-2.81S235.75,119.33,235.75,124.6Z" style="fill:none;stroke:#263238;strokeLinecap:round;strokeLinejoin:round"></path><path d="M243.3,121.79s1.23,3.51,1.93,3.51,1.76-2.28,3.69-1.06.35,3.17-.17,3.69a7.65,7.65,0,0,1-1.06.88l3.51,2.28a58.06,58.06,0,0,0,3-7.37c.7-2.64-.88-3.69-2.46-4.39S243.13,119.86,243.3,121.79Z" style="fill:#263238;stroke:#263238;strokeLinecap:round;strokeLinejoin:round"></path><path d="M251.73,137.24s-3.51,3.33-4.21,7-3.34,11.06-1.93,13.52,6.14,4.74,6.67,6.32,2.46,8.08,2.46,8.08-7,4.39-14.58,9.31-11.94,7.37-11.94,9.3,5.62,33,5.62,33l.7,4.39s-6.49,2.28-8.25,3.16-.88,1.06.18,1.58,9.48.88,10.71.7,1.75,0,.52-8.77c-.4-2.87-.35-24.76-.7-29.68,0,0,28.27-9.83,30.55-11.76s4-6.68,2.11-11.06-7.2-11.94-7.2-13.17A150.31,150.31,0,0,0,258.76,142C257.53,138.29,253.66,135.13,251.73,137.24Z" style="fill:#CEA724;stroke:#263238;strokeLinecap:round;strokeLinejoin:round"></path><path d="M270.38,177.62c-2,0-4.53,0-7.69-.22a20.46,20.46,0,0,1-10.45-3.66c-2.7,1.7-7.29,4.61-12.1,7.75-7.55,4.91-11.94,7.37-11.94,9.3s5.62,33,5.62,33l.7,4.39s-6.49,2.28-8.25,3.16a6.5,6.5,0,0,0-.69.4l5,1.73a55.41,55.41,0,0,0,6.54.15c1.23-.17,1.75,0,.52-8.77-.4-2.87-.35-24.76-.7-29.68,0,0,28.27-9.83,30.55-11.76A9.33,9.33,0,0,0,270.38,177.62Z" style="fill:#fff"></path><g style="clip-path:url(#freepik--clip-path-10--inject-5)"><path d="M237.56,183.15c-6,3.83-9.36,5.94-9.36,7.64,0,1.93,5.62,33,5.62,33l.7,4.39s-6.49,2.28-8.25,3.16a6.5,6.5,0,0,0-.69.4l5,1.73c2.22.15,4.71.23,5.93.19a5.74,5.74,0,0,0-.11-1.75l-4.27-34.43,5,1.39c0-1.59-.09-2.88-.15-3.7l1.7-.59.76-2.87S239.19,185.89,237.56,183.15Z" style="fill:#CEA724"></path><path d="M237.56,183.15c-6,3.83-9.36,5.94-9.36,7.64,0,1.93,5.62,33,5.62,33l.7,4.39s-6.49,2.28-8.25,3.16a6.5,6.5,0,0,0-.69.4l5,1.73c2.22.15,4.71.23,5.93.19a5.74,5.74,0,0,0-.11-1.75l-4.27-34.43,5,1.39c0-1.59-.09-2.88-.15-3.7l1.7-.59.76-2.87S239.19,185.89,237.56,183.15Z" style="fill:#fff;opacity:0.5"></path></g><path d="M270.38,177.62c-2,0-4.53,0-7.69-.22a20.46,20.46,0,0,1-10.45-3.66c-2.7,1.7-7.29,4.61-12.1,7.75-7.55,4.91-11.94,7.37-11.94,9.3s5.62,33,5.62,33l.7,4.39s-6.49,2.28-8.25,3.16a6.5,6.5,0,0,0-.69.4l5,1.73a55.41,55.41,0,0,0,6.54.15c1.23-.17,1.75,0,.52-8.77-.4-2.87-.35-24.76-.7-29.68,0,0,28.27-9.83,30.55-11.76A9.33,9.33,0,0,0,270.38,177.62Z" style="fill:none;stroke:#263238;strokeLinecap:round;strokeLinejoin:round"></path><path d="M254.72,172.18a14.84,14.84,0,0,0,8.07,2.11c5.1,0,6.85-1.93,6.85-1.93a10.71,10.71,0,0,1,1.41,5.79c-.36,2.81-3.87,6.5-6.15,7.73S239.44,199,239.44,199s-5.09-4.39-6.5-6.67-2.81-4.21-2.81-4.21,8.26-6.85,13-9.48S254.72,172.18,254.72,172.18Z" style="fill:#fff"></path><g style="clip-path:url(#freepik--clip-path-11--inject-5)"><path d="M259.54,175.9c-1.58-1.13-.08-1.54,1.7-1.68a14.22,14.22,0,0,1-6.52-2s-6.85,3.86-11.59,6.5-13,9.48-13,9.48,1.41,1.93,2.81,4.21c.09.14.19.29.31.45l1.05.4s13.9-12.83,15.61-12.83,7.06,1.28,9,1.07-2.78-3.43-2.78-3.43,7.69,2.36,9.19,2.36S262.53,178,259.54,175.9Z" style="fill:#CEA724"></path><path d="M259.54,175.9c-1.58-1.13-.08-1.54,1.7-1.68a14.22,14.22,0,0,1-6.52-2s-6.85,3.86-11.59,6.5-13,9.48-13,9.48,1.41,1.93,2.81,4.21c.09.14.19.29.31.45l1.05.4s13.9-12.83,15.61-12.83,7.06,1.28,9,1.07-2.78-3.43-2.78-3.43,7.69,2.36,9.19,2.36S262.53,178,259.54,175.9Z" style="fill:#fff;opacity:0.5"></path></g><path d="M254.72,172.18a14.84,14.84,0,0,0,8.07,2.11c5.1,0,6.85-1.93,6.85-1.93a10.71,10.71,0,0,1,1.41,5.79c-.36,2.81-3.87,6.5-6.15,7.73S239.44,199,239.44,199s-5.09-4.39-6.5-6.67-2.81-4.21-2.81-4.21,8.26-6.85,13-9.48S254.72,172.18,254.72,172.18Z" style="fill:none;stroke:#263238;strokeLinecap:round;strokeLinejoin:round"></path><path d="M253,137.77s-4.56.87-4.39,6.67c.12,3.86,5.62,26.69,5.62,26.69s-21.42-3.69-23-3.34a9.08,9.08,0,0,0-4.57,3.86c-.52,1.23-2.1,4.39-1.23,4.39s1.58-2.63,1.58-2.63,2.46-.7,4-1.23,1.76-1.05,2.46-1.05,11.41,3,15.1,4.21,10.36,3,11.59,1.58.35-23.53-1.23-29.67S257.17,137.94,253,137.77Z" style="fill:#fff"></path><g style="clip-path:url(#freepik--clip-path-12--inject-5)"><path d="M253,137.77s-4.56.87-4.39,6.67c.12,3.86,5.62,26.69,5.62,26.69s-21.42-3.69-23-3.34a9.08,9.08,0,0,0-4.57,3.86c-.52,1.23-2.1,4.39-1.23,4.39s1.58-2.63,1.58-2.63,2.46-.7,4-1.23,1.76-1.05,2.46-1.05c.52,0,6.62,1.66,11.21,3,5.8-.25,12.17-.74,12.29-1.67.19-1.53-1.69-28.81-2.07-34.31A5.38,5.38,0,0,0,253,137.77Z" style="fill:#CEA724"></path><path d="M253,137.77s-4.56.87-4.39,6.67c.12,3.86,5.62,26.69,5.62,26.69s-21.42-3.69-23-3.34a9.08,9.08,0,0,0-4.57,3.86c-.52,1.23-2.1,4.39-1.23,4.39s1.58-2.63,1.58-2.63,2.46-.7,4-1.23,1.76-1.05,2.46-1.05c.52,0,6.62,1.66,11.21,3,5.8-.25,12.17-.74,12.29-1.67.19-1.53-1.69-28.81-2.07-34.31A5.38,5.38,0,0,0,253,137.77Z" style="fill:#fff;opacity:0.5"></path></g><path d="M253,137.77s-4.56.87-4.39,6.67c.12,3.86,5.62,26.69,5.62,26.69s-21.42-3.69-23-3.34a9.08,9.08,0,0,0-4.57,3.86c-.52,1.23-2.1,4.39-1.23,4.39s1.58-2.63,1.58-2.63,2.46-.7,4-1.23,1.76-1.05,2.46-1.05,11.41,3,15.1,4.21,10.36,3,11.59,1.58.35-23.53-1.23-29.67S257.17,137.94,253,137.77Z" style="fill:none;stroke:#263238;strokeLinecap:round;strokeLinejoin:round"></path><path d="M237.16,233.63c.86-.12,1.37-.08,1.18-3-2.27.14-4.69.05-4.69.05l-.5-2c-2,.72-5.63,2-6.88,2.67-1.75.88-.88,1.06.18,1.58S235.93,233.81,237.16,233.63Z" style="fill:#263238;stroke:#263238;strokeLinecap:round;strokeLinejoin:round"></path><path d="M235.23,123.37s1.05-11.06,3.33-12.47,7.2-1.93,9.84-.35,5.79,10.89,5.79,10.89Z" style="fill:#fff;stroke:#263238;strokeLinecap:round;strokeLinejoin:round"></path><path d="M227.68,123.37s3.51,2.1,5.62,2.1,20.89-2.1,23-2.63,2.63-3.51,2.63-3.51S232.59,122.14,227.68,123.37Z" style="fill:#fff;stroke:#263238;strokeLinecap:round;strokeLinejoin:round"></path></g><g id="freepik--Sun--inject-5"><circle cx="386.81" cy="80.78" r="21.81" style="fill:#CEA724"></circle><circle cx="386.81" cy="80.78" r="21.81" style="fill:#fff;opacity:0.6000000000000001"></circle></g></svg>